<svg xmlns="http://www.w3.org/2000/svg" xmlns:xlink="http://www.w3.org/1999/xlink" width="1200" zoomAndPan="magnify" viewBox="0 0 900 299.999988" height="400" preserveAspectRatio="xMidYMid meet" version="1.2"><defs><clipPath id="bec9dfd770"><path d="M 29.585938 19.664062 L 290.257812 19.664062 L 290.257812 280.335938 L 29.585938 280.335938 Z M 29.585938 19.664062 "/></clipPath><clipPath id="5ec37a96c1"><path d="M 159.921875 280.335938 C 125.125 280.335938 92.355469 266.792969 67.769531 242.152344 C 43.128906 217.5625 29.585938 184.796875 29.585938 150 C 29.585938 115.203125 43.128906 82.4375 67.769531 57.847656 C 92.355469 33.207031 125.125 19.664062 159.921875 19.664062 C 194.71875 19.664062 227.484375 33.207031 252.074219 57.847656 C 276.714844 82.488281 290.257812 115.203125 290.257812 150 C 290.257812 184.796875 276.714844 217.5625 252.074219 242.152344 C 227.484375 266.792969 194.71875 280.335938 159.921875 280.335938 Z M 159.921875 27.476562 C 127.207031 27.476562 96.421875 40.242188 73.292969 63.371094 C 50.160156 86.5 37.398438 117.285156 37.398438 150 C 37.398438 182.714844 50.160156 213.5 73.292969 236.628906 C 96.421875 259.757812 127.207031 272.523438 159.921875 272.523438 C 192.636719 272.523438 223.421875 259.757812 246.550781 236.628906 C 269.679688 213.5 282.445312 182.714844 282.445312 150 C 282.445312 117.285156 269.679688 86.5 246.550781 63.371094 C 223.421875 40.242188 192.636719 27.476562 159.921875 27.476562 Z M 159.921875 27.476562 "/></clipPath></defs><g id="1851788877"><g style="fill:#ffffff;fill-opacity:1;"><g transform="translate(315.898643, 108.314963)"><path style="stroke:none" d="M 2.5625 0 L 2.5625 -0.921875 L 4.9375 -0.921875 C 6.707031 -0.921875 7.894531 -1.359375 8.5 -2.234375 C 9.113281 -3.117188 9.421875 -4.992188 9.421875 -7.859375 L 9.421875 -57.703125 C 9.421875 -60.566406 9.097656 -62.394531 8.453125 -63.1875 C 7.816406 -63.988281 6.582031 -64.390625 4.75 -64.390625 L 2.5625 -64.390625 L 2.5625 -65.296875 L 24.421875 -65.296875 C 32.398438 -65.296875 38.539062 -62.457031 42.84375 -56.78125 C 47.144531 -51.113281 49.296875 -43.039062 49.296875 -32.5625 C 49.296875 -25.851562 48.378906 -20.070312 46.546875 -15.21875 C 44.722656 -10.375 41.960938 -6.625 38.265625 -3.96875 C 34.578125 -1.320312 29.929688 0 24.328125 0 Z M 17.46875 -0.921875 L 23.5 -0.921875 C 29.476562 -0.921875 33.851562 -3.414062 36.625 -8.40625 C 39.394531 -13.40625 40.78125 -21.488281 40.78125 -32.65625 C 40.78125 -43.257812 39.410156 -51.195312 36.671875 -56.46875 C 33.929688 -61.75 29.570312 -64.390625 23.59375 -64.390625 L 17.46875 -64.390625 Z M 17.46875 -0.921875 "/></g></g><g style="fill:#ffffff;fill-opacity:1;"><g transform="translate(369.197785, 108.314963)"><path style="stroke:none" d="M 2.1875 0 L 2.1875 -0.921875 L 2.28125 -0.921875 C 4.78125 -0.921875 6.394531 -1.300781 7.125 -2.0625 C 7.863281 -2.820312 8.234375 -4.601562 8.234375 -7.40625 L 8.234375 -41.703125 C 8.234375 -43.535156 8.09375 -44.90625 7.8125 -45.8125 C 7.539062 -46.726562 6.992188 -47.335938 6.171875 -47.640625 C 5.347656 -47.953125 4.113281 -48.109375 2.46875 -48.109375 L 2.1875 -48.109375 L 2.1875 -49.015625 L 16.09375 -49.015625 L 16.09375 -38.78125 L 16.28125 -38.78125 C 17.132812 -42.070312 18.335938 -44.753906 19.890625 -46.828125 C 21.441406 -48.898438 23.710938 -49.9375 26.703125 -49.9375 C 29.078125 -49.9375 30.875 -49.3125 32.09375 -48.0625 C 33.3125 -46.8125 33.921875 -45.179688 33.921875 -43.171875 C 33.921875 -39.265625 31.847656 -37.3125 27.703125 -37.3125 C 27.703125 -41.09375 27.441406 -43.710938 26.921875 -45.171875 C 26.410156 -46.640625 25.394531 -47.375 23.875 -47.375 C 21.613281 -47.375 19.765625 -45.679688 18.328125 -42.296875 C 16.898438 -38.910156 16.1875 -33.957031 16.1875 -27.4375 L 16.1875 -7.40625 C 16.1875 -5.519531 16.335938 -4.117188 16.640625 -3.203125 C 16.953125 -2.285156 17.546875 -1.675781 18.421875 -1.375 C 19.304688 -1.070312 20.664062 -0.921875 22.5 -0.921875 L 23.5 -0.921875 L 23.5 0 Z M 2.1875 0 "/></g></g><g style="fill:#ffffff;fill-opacity:1;"><g transform="translate(404.212482, 108.314963)"><path style="stroke:none" d="M 14.625 0.921875 C 11.394531 0.921875 8.742188 -0.265625 6.671875 -2.640625 C 4.597656 -5.023438 3.5625 -8.441406 3.5625 -12.890625 C 3.5625 -17.710938 4.898438 -21.21875 7.578125 -23.40625 C 10.265625 -25.601562 14.382812 -26.851562 19.9375 -27.15625 L 25.875 -27.4375 L 25.875 -36.21875 C 25.875 -41.03125 25.398438 -44.347656 24.453125 -46.171875 C 23.515625 -48.003906 21.890625 -48.921875 19.578125 -48.921875 C 17.253906 -48.921875 15.585938 -47.945312 14.578125 -46 C 13.578125 -44.050781 13.078125 -40.546875 13.078125 -35.484375 C 8.691406 -35.484375 6.5 -37.191406 6.5 -40.609375 C 6.5 -43.410156 7.773438 -45.648438 10.328125 -47.328125 C 12.890625 -49.003906 16.210938 -49.84375 20.296875 -49.84375 C 24.753906 -49.84375 28.125 -48.632812 30.40625 -46.21875 C 32.695312 -43.8125 33.84375 -39.742188 33.84375 -34.015625 L 33.84375 -7.953125 C 33.84375 -4.960938 34.144531 -3.039062 34.75 -2.1875 C 35.363281 -1.34375 36.550781 -0.921875 38.3125 -0.921875 L 38.5 -0.921875 L 38.5 0 L 26.0625 0 L 26.0625 -8.78125 L 25.875 -8.78125 C 23.988281 -2.3125 20.238281 0.921875 14.625 0.921875 Z M 17.28125 -1.1875 C 18.988281 -1.1875 20.484375 -1.859375 21.765625 -3.203125 C 23.046875 -4.546875 24.050781 -6.359375 24.78125 -8.640625 C 25.507812 -10.929688 25.875 -13.476562 25.875 -16.28125 L 25.875 -26.515625 L 21.671875 -26.25 C 17.710938 -26 15.03125 -24.804688 13.625 -22.671875 C 12.21875 -20.546875 11.515625 -17.285156 11.515625 -12.890625 C 11.515625 -8.867188 12.003906 -5.910156 12.984375 -4.015625 C 13.960938 -2.128906 15.394531 -1.1875 17.28125 -1.1875 Z M 17.28125 -1.1875 "/></g></g><g style="fill:#ffffff;fill-opacity:1;"><g transform="translate(445.626743, 108.314963)"><path style="stroke:none" d="M 9.046875 0.640625 C 7.890625 0.640625 6.960938 0.226562 6.265625 -0.59375 C 5.566406 -1.414062 5.21875 -2.773438 5.21875 -4.671875 C 5.21875 -6.554688 5.566406 -7.894531 6.265625 -8.6875 C 6.960938 -9.476562 7.890625 -9.875 9.046875 -9.875 C 10.148438 -9.875 11.050781 -9.476562 11.75 -8.6875 C 12.445312 -7.894531 12.796875 -6.554688 12.796875 -4.671875 C 12.796875 -2.773438 12.445312 -1.414062 11.75 -0.59375 C 11.050781 0.226562 10.148438 0.640625 9.046875 0.640625 Z M 9.046875 0.640625 "/></g></g><g style="fill:#ffffff;fill-opacity:1;"><g transform="translate(315.898643, 200.917525)"><path style="stroke:none" d="M 2.5625 0 L 2.5625 -0.921875 L 5.9375 -0.921875 C 7.832031 -0.921875 9.113281 -1.34375 9.78125 -2.1875 C 10.457031 -3.039062 10.796875 -4.90625 10.796875 -7.78125 L 10.796875 -57.53125 C 10.796875 -60.394531 10.488281 -62.253906 9.875 -63.109375 C 9.269531 -63.960938 8.144531 -64.390625 6.5 -64.390625 L 2.5625 -64.390625 L 2.5625 -65.296875 L 18.296875 -65.296875 L 34.75 -7.3125 L 50.578125 -65.296875 L 65.578125 -65.296875 L 65.578125 -64.390625 L 62.921875 -64.390625 C 61.335938 -64.390625 60.253906 -63.960938 59.671875 -63.109375 C 59.085938 -62.253906 58.796875 -60.453125 58.796875 -57.703125 L 58.796875 -7.59375 C 58.796875 -4.84375 59.070312 -3.039062 59.625 -2.1875 C 60.175781 -1.34375 61.394531 -0.921875 63.28125 -0.921875 L 65.578125 -0.921875 L 65.578125 0 L 44.53125 0 L 44.53125 -0.921875 L 46 -0.921875 C 48.007812 -0.921875 49.300781 -1.359375 49.875 -2.234375 C 50.457031 -3.117188 50.75 -5.054688 50.75 -8.046875 L 50.75 -62.46875 L 33.84375 0 L 29.453125 0 L 11.703125 -61.640625 L 11.703125 -7.953125 C 11.703125 -4.847656 12.066406 -2.898438 12.796875 -2.109375 C 13.535156 -1.316406 14.972656 -0.921875 17.109375 -0.921875 L 20.125 -0.921875 L 20.125 0 Z M 2.5625 0 "/></g></g><g style="fill:#ffffff;fill-opacity:1;"><g transform="translate(384.008213, 200.917525)"><path style="stroke:none" d="M 21.125 0.921875 C 15.695312 0.921875 11.457031 -1.148438 8.40625 -5.296875 C 5.363281 -9.441406 3.84375 -15.847656 3.84375 -24.515625 C 3.84375 -41.398438 9.664062 -49.84375 21.3125 -49.84375 C 26.914062 -49.84375 31.179688 -47.738281 34.109375 -43.53125 C 37.035156 -39.320312 38.5 -32.984375 38.5 -24.515625 C 38.5 -15.796875 37.035156 -9.375 34.109375 -5.25 C 31.179688 -1.132812 26.851562 0.921875 21.125 0.921875 Z M 21.21875 0 C 24.695312 0 27.117188 -1.859375 28.484375 -5.578125 C 29.859375 -9.296875 30.546875 -15.609375 30.546875 -24.515625 C 30.546875 -30.484375 30.253906 -35.265625 29.671875 -38.859375 C 29.097656 -42.460938 28.125 -45.039062 26.75 -46.59375 C 25.375 -48.144531 23.5 -48.921875 21.125 -48.921875 C 18.863281 -48.921875 17.046875 -48.144531 15.671875 -46.59375 C 14.304688 -45.039062 13.332031 -42.460938 12.75 -38.859375 C 12.175781 -35.265625 11.890625 -30.484375 11.890625 -24.515625 C 11.890625 -15.609375 12.617188 -9.296875 14.078125 -5.578125 C 15.546875 -1.859375 17.925781 0 21.21875 0 Z M 18.84375 -55.421875 L 18.84375 -56.328125 C 20.125 -58.648438 21.296875 -61 22.359375 -63.375 C 23.429688 -65.75 24.363281 -67.972656 25.15625 -70.046875 L 32.5625 -70.046875 L 32.5625 -69.140625 C 31.707031 -68.046875 30.515625 -66.671875 28.984375 -65.015625 C 27.460938 -63.367188 25.832031 -61.691406 24.09375 -59.984375 C 22.363281 -58.285156 20.828125 -56.765625 19.484375 -55.421875 Z M 18.84375 -55.421875 "/></g></g><g style="fill:#ffffff;fill-opacity:1;"><g transform="translate(426.336688, 200.917525)"><path style="stroke:none" d="M 1.921875 0 L 1.921875 -0.921875 L 2.46875 -0.921875 C 4.113281 -0.921875 5.347656 -1.070312 6.171875 -1.375 C 6.992188 -1.675781 7.539062 -2.3125 7.8125 -3.28125 C 8.09375 -4.257812 8.234375 -5.695312 8.234375 -7.59375 L 8.234375 -41.703125 C 8.234375 -43.535156 8.09375 -44.90625 7.8125 -45.8125 C 7.539062 -46.726562 7.007812 -47.335938 6.21875 -47.640625 C 5.425781 -47.953125 4.238281 -48.109375 2.65625 -48.109375 L 2.1875 -48.109375 L 2.1875 -49.015625 L 16 -49.015625 L 16 -40.421875 L 16.1875 -40.421875 C 16.976562 -43.222656 18.269531 -45.492188 20.0625 -47.234375 C 21.863281 -48.972656 24.320312 -49.84375 27.4375 -49.84375 C 31.582031 -49.84375 34.613281 -48.5 36.53125 -45.8125 C 38.457031 -43.132812 39.421875 -38.835938 39.421875 -32.921875 L 39.421875 -7.59375 C 39.421875 -4.726562 39.738281 -2.898438 40.375 -2.109375 C 41.019531 -1.316406 42.46875 -0.921875 44.71875 -0.921875 L 45.09375 -0.921875 L 45.09375 0 L 31.546875 0 L 31.546875 -33.84375 C 31.546875 -38.53125 31.039062 -42 30.03125 -44.25 C 29.03125 -46.507812 27.28125 -47.640625 24.78125 -47.640625 C 22.28125 -47.640625 20.207031 -46.34375 18.5625 -43.75 C 16.914062 -41.164062 16.09375 -36.976562 16.09375 -31.1875 L 16.09375 -7.40625 C 16.09375 -4.601562 16.425781 -2.820312 17.09375 -2.0625 C 17.769531 -1.300781 19.265625 -0.921875 21.578125 -0.921875 L 22.046875 -0.921875 L 22.046875 0 Z M 1.921875 0 "/></g></g><g style="fill:#ffffff;fill-opacity:1;"><g transform="translate(473.419137, 200.917525)"><path style="stroke:none" d="M 11.796875 -58.890625 C 10.640625 -58.890625 9.664062 -59.269531 8.875 -60.03125 C 8.082031 -60.800781 7.6875 -62.066406 7.6875 -63.828125 C 7.6875 -65.660156 8.082031 -66.941406 8.875 -67.671875 C 9.664062 -68.398438 10.640625 -68.765625 11.796875 -68.765625 C 12.953125 -68.765625 13.941406 -68.398438 14.765625 -67.671875 C 15.585938 -66.941406 16 -65.660156 16 -63.828125 C 16 -62.066406 15.585938 -60.800781 14.765625 -60.03125 C 13.941406 -59.269531 12.953125 -58.890625 11.796875 -58.890625 Z M 1.5625 0 L 1.5625 -0.921875 L 2.75 -0.921875 C 4.9375 -0.921875 6.410156 -1.316406 7.171875 -2.109375 C 7.941406 -2.898438 8.328125 -4.789062 8.328125 -7.78125 L 8.328125 -41.34375 C 8.328125 -44.207031 7.957031 -46.050781 7.21875 -46.875 C 6.488281 -47.695312 5.085938 -48.109375 3.015625 -48.109375 L 2.109375 -48.109375 L 2.109375 -49.015625 L 16.1875 -49.015625 L 16.1875 -7.6875 C 16.1875 -4.757812 16.566406 -2.898438 17.328125 -2.109375 C 18.085938 -1.316406 19.535156 -0.921875 21.671875 -0.921875 L 22.6875 -0.921875 L 22.6875 0 Z M 1.5625 0 "/></g></g><g style="fill:#ffffff;fill-opacity:1;"><g transform="translate(497.188933, 200.917525)"><path style="stroke:none" d="M 20.390625 0.921875 C 17.160156 0.921875 14.296875 0.144531 11.796875 -1.40625 C 9.296875 -2.96875 7.34375 -5.59375 5.9375 -9.28125 C 4.539062 -12.96875 3.84375 -18.046875 3.84375 -24.515625 C 3.84375 -30.972656 4.539062 -36.046875 5.9375 -39.734375 C 7.34375 -43.421875 9.296875 -46.023438 11.796875 -47.546875 C 14.296875 -49.078125 17.222656 -49.84375 20.578125 -49.84375 C 25.023438 -49.84375 28.285156 -48.878906 30.359375 -46.953125 C 32.429688 -45.035156 33.46875 -42.859375 33.46875 -40.421875 C 33.46875 -38.835938 32.976562 -37.539062 32 -36.53125 C 31.03125 -35.53125 29.234375 -35.03125 26.609375 -35.03125 C 26.609375 -40.269531 26.164062 -43.894531 25.28125 -45.90625 C 24.394531 -47.914062 22.796875 -48.921875 20.484375 -48.921875 C 18.597656 -48.921875 17.015625 -48.234375 15.734375 -46.859375 C 14.453125 -45.492188 13.472656 -43.039062 12.796875 -39.5 C 12.128906 -35.96875 11.796875 -31 11.796875 -24.59375 C 11.796875 -18.5 12.160156 -13.664062 12.890625 -10.09375 C 13.628906 -6.53125 14.742188 -3.972656 16.234375 -2.421875 C 17.722656 -0.867188 19.628906 -0.09375 21.953125 -0.09375 C 27.253906 -0.09375 30.363281 -3.992188 31.28125 -11.796875 C 32.132812 -11.554688 32.726562 -11.144531 33.0625 -10.5625 C 33.394531 -9.976562 33.5625 -9.257812 33.5625 -8.40625 C 33.5625 -7.132812 33.148438 -5.78125 32.328125 -4.34375 C 31.503906 -2.90625 30.113281 -1.664062 28.15625 -0.625 C 26.207031 0.40625 23.617188 0.921875 20.390625 0.921875 Z M 20.390625 0.921875 "/></g></g><g style="fill:#ffffff;fill-opacity:1;"><g transform="translate(533.392151, 200.917525)"><path style="stroke:none" d="M 14.625 0.921875 C 11.394531 0.921875 8.742188 -0.265625 6.671875 -2.640625 C 4.597656 -5.023438 3.5625 -8.441406 3.5625 -12.890625 C 3.5625 -17.710938 4.898438 -21.21875 7.578125 -23.40625 C 10.265625 -25.601562 14.382812 -26.851562 19.9375 -27.15625 L 25.875 -27.4375 L 25.875 -36.21875 C 25.875 -41.03125 25.398438 -44.347656 24.453125 -46.171875 C 23.515625 -48.003906 21.890625 -48.921875 19.578125 -48.921875 C 17.253906 -48.921875 15.585938 -47.945312 14.578125 -46 C 13.578125 -44.050781 13.078125 -40.546875 13.078125 -35.484375 C 8.691406 -35.484375 6.5 -37.191406 6.5 -40.609375 C 6.5 -43.410156 7.773438 -45.648438 10.328125 -47.328125 C 12.890625 -49.003906 16.210938 -49.84375 20.296875 -49.84375 C 24.753906 -49.84375 28.125 -48.632812 30.40625 -46.21875 C 32.695312 -43.8125 33.84375 -39.742188 33.84375 -34.015625 L 33.84375 -7.953125 C 33.84375 -4.960938 34.144531 -3.039062 34.75 -2.1875 C 35.363281 -1.34375 36.550781 -0.921875 38.3125 -0.921875 L 38.5 -0.921875 L 38.5 0 L 26.0625 0 L 26.0625 -8.78125 L 25.875 -8.78125 C 23.988281 -2.3125 20.238281 0.921875 14.625 0.921875 Z M 17.28125 -1.1875 C 18.988281 -1.1875 20.484375 -1.859375 21.765625 -3.203125 C 23.046875 -4.546875 24.050781 -6.359375 24.78125 -8.640625 C 25.507812 -10.929688 25.875 -13.476562 25.875 -16.28125 L 25.875 -26.515625 L 21.671875 -26.25 C 17.710938 -26 15.03125 -24.804688 13.625 -22.671875 C 12.21875 -20.546875 11.515625 -17.285156 11.515625 -12.890625 C 11.515625 -8.867188 12.003906 -5.910156 12.984375 -4.015625 C 13.960938 -2.128906 15.394531 -1.1875 17.28125 -1.1875 Z M 17.28125 -1.1875 "/></g></g><g style="fill:#ffffff;fill-opacity:1;"><g transform="translate(574.806412, 200.917525)"><path style="stroke:none" d=""/></g></g><g style="fill:#ffffff;fill-opacity:1;"><g transform="translate(590.805287, 200.917525)"><path style="stroke:none" d="M 2.5625 0 L 2.5625 -0.921875 L 5.9375 -0.921875 C 7.832031 -0.921875 9.113281 -1.34375 9.78125 -2.1875 C 10.457031 -3.039062 10.796875 -4.90625 10.796875 -7.78125 L 10.796875 -57.53125 C 10.796875 -60.394531 10.488281 -62.253906 9.875 -63.109375 C 9.269531 -63.960938 8.144531 -64.390625 6.5 -64.390625 L 2.5625 -64.390625 L 2.5625 -65.296875 L 18.296875 -65.296875 L 34.75 -7.3125 L 50.578125 -65.296875 L 65.578125 -65.296875 L 65.578125 -64.390625 L 62.921875 -64.390625 C 61.335938 -64.390625 60.253906 -63.960938 59.671875 -63.109375 C 59.085938 -62.253906 58.796875 -60.453125 58.796875 -57.703125 L 58.796875 -7.59375 C 58.796875 -4.84375 59.070312 -3.039062 59.625 -2.1875 C 60.175781 -1.34375 61.394531 -0.921875 63.28125 -0.921875 L 65.578125 -0.921875 L 65.578125 0 L 44.53125 0 L 44.53125 -0.921875 L 46 -0.921875 C 48.007812 -0.921875 49.300781 -1.359375 49.875 -2.234375 C 50.457031 -3.117188 50.75 -5.054688 50.75 -8.046875 L 50.75 -62.46875 L 33.84375 0 L 29.453125 0 L 11.703125 -61.640625 L 11.703125 -7.953125 C 11.703125 -4.847656 12.066406 -2.898438 12.796875 -2.109375 C 13.535156 -1.316406 14.972656 -0.921875 17.109375 -0.921875 L 20.125 -0.921875 L 20.125 0 Z M 2.5625 0 "/></g></g><g style="fill:#ffffff;fill-opacity:1;"><g transform="translate(658.914856, 200.917525)"><path style="stroke:none" d="M 21.125 0.921875 C 15.695312 0.921875 11.457031 -1.148438 8.40625 -5.296875 C 5.363281 -9.441406 3.84375 -15.847656 3.84375 -24.515625 C 3.84375 -41.398438 9.664062 -49.84375 21.3125 -49.84375 C 26.914062 -49.84375 31.179688 -47.738281 34.109375 -43.53125 C 37.035156 -39.320312 38.5 -32.984375 38.5 -24.515625 C 38.5 -15.796875 37.035156 -9.375 34.109375 -5.25 C 31.179688 -1.132812 26.851562 0.921875 21.125 0.921875 Z M 21.21875 0 C 24.695312 0 27.117188 -1.859375 28.484375 -5.578125 C 29.859375 -9.296875 30.546875 -15.609375 30.546875 -24.515625 C 30.546875 -30.484375 30.253906 -35.265625 29.671875 -38.859375 C 29.097656 -42.460938 28.125 -45.039062 26.75 -46.59375 C 25.375 -48.144531 23.5 -48.921875 21.125 -48.921875 C 18.863281 -48.921875 17.046875 -48.144531 15.671875 -46.59375 C 14.304688 -45.039062 13.332031 -42.460938 12.75 -38.859375 C 12.175781 -35.265625 11.890625 -30.484375 11.890625 -24.515625 C 11.890625 -15.609375 12.617188 -9.296875 14.078125 -5.578125 C 15.546875 -1.859375 17.925781 0 21.21875 0 Z M 21.21875 0 "/></g></g><g style="fill:#ffffff;fill-opacity:1;"><g transform="translate(701.243331, 200.917525)"><path style="stroke:none" d="M 2.1875 0 L 2.1875 -0.921875 L 2.28125 -0.921875 C 4.78125 -0.921875 6.394531 -1.300781 7.125 -2.0625 C 7.863281 -2.820312 8.234375 -4.601562 8.234375 -7.40625 L 8.234375 -41.703125 C 8.234375 -43.535156 8.09375 -44.90625 7.8125 -45.8125 C 7.539062 -46.726562 6.992188 -47.335938 6.171875 -47.640625 C 5.347656 -47.953125 4.113281 -48.109375 2.46875 -48.109375 L 2.1875 -48.109375 L 2.1875 -49.015625 L 16.09375 -49.015625 L 16.09375 -38.78125 L 16.28125 -38.78125 C 17.132812 -42.070312 18.335938 -44.753906 19.890625 -46.828125 C 21.441406 -48.898438 23.710938 -49.9375 26.703125 -49.9375 C 29.078125 -49.9375 30.875 -49.3125 32.09375 -48.0625 C 33.3125 -46.8125 33.921875 -45.179688 33.921875 -43.171875 C 33.921875 -39.265625 31.847656 -37.3125 27.703125 -37.3125 C 27.703125 -41.09375 27.441406 -43.710938 26.921875 -45.171875 C 26.410156 -46.640625 25.394531 -47.375 23.875 -47.375 C 21.613281 -47.375 19.765625 -45.679688 18.328125 -42.296875 C 16.898438 -38.910156 16.1875 -33.957031 16.1875 -27.4375 L 16.1875 -7.40625 C 16.1875 -5.519531 16.335938 -4.117188 16.640625 -3.203125 C 16.953125 -2.285156 17.546875 -1.675781 18.421875 -1.375 C 19.304688 -1.070312 20.664062 -0.921875 22.5 -0.921875 L 23.5 -0.921875 L 23.5 0 Z M 2.1875 0 "/></g></g><g style="fill:#ffffff;fill-opacity:1;"><g transform="translate(736.258028, 200.917525)"><path style="stroke:none" d="M 21.21875 0.921875 C 15.550781 0.921875 11.238281 -1.253906 8.28125 -5.609375 C 5.320312 -9.972656 3.84375 -16.117188 3.84375 -24.046875 C 3.84375 -32.648438 5.289062 -39.097656 8.1875 -43.390625 C 11.082031 -47.691406 15.148438 -49.84375 20.390625 -49.84375 C 25.390625 -49.84375 29.226562 -47.859375 31.90625 -43.890625 C 34.59375 -39.929688 35.9375 -34.382812 35.9375 -27.25 L 35.9375 -25.609375 L 11.703125 -25.609375 C 11.703125 -16.398438 12.644531 -9.859375 14.53125 -5.984375 C 16.425781 -2.117188 19.203125 -0.1875 22.859375 -0.1875 C 25.546875 -0.1875 27.679688 -1.066406 29.265625 -2.828125 C 30.847656 -4.597656 31.882812 -7.40625 32.375 -11.25 C 33.832031 -10.882812 34.5625 -9.9375 34.5625 -8.40625 C 34.5625 -7.070312 34.085938 -5.6875 33.140625 -4.25 C 32.203125 -2.820312 30.742188 -1.601562 28.765625 -0.59375 C 26.785156 0.414062 24.269531 0.921875 21.21875 0.921875 Z M 11.703125 -26.515625 L 28.171875 -26.515625 C 28.109375 -34.441406 27.507812 -40.15625 26.375 -43.65625 C 25.25 -47.164062 23.253906 -48.921875 20.390625 -48.921875 C 17.523438 -48.921875 15.390625 -47.179688 13.984375 -43.703125 C 12.585938 -40.234375 11.828125 -34.503906 11.703125 -26.515625 Z M 11.703125 -26.515625 "/></g></g><g style="fill:#ffffff;fill-opacity:1;"><g transform="translate(775.660991, 200.917525)"><path style="stroke:none" d="M 1.921875 0 L 1.921875 -0.921875 L 2.46875 -0.921875 C 4.113281 -0.921875 5.347656 -1.070312 6.171875 -1.375 C 6.992188 -1.675781 7.539062 -2.3125 7.8125 -3.28125 C 8.09375 -4.257812 8.234375 -5.695312 8.234375 -7.59375 L 8.234375 -41.703125 C 8.234375 -43.535156 8.09375 -44.90625 7.8125 -45.8125 C 7.539062 -46.726562 7.007812 -47.335938 6.21875 -47.640625 C 5.425781 -47.953125 4.238281 -48.109375 2.65625 -48.109375 L 2.1875 -48.109375 L 2.1875 -49.015625 L 16 -49.015625 L 16 -40.421875 L 16.1875 -40.421875 C 16.976562 -43.222656 18.269531 -45.492188 20.0625 -47.234375 C 21.863281 -48.972656 24.320312 -49.84375 27.4375 -49.84375 C 31.582031 -49.84375 34.613281 -48.5 36.53125 -45.8125 C 38.457031 -43.132812 39.421875 -38.835938 39.421875 -32.921875 L 39.421875 -7.59375 C 39.421875 -4.726562 39.738281 -2.898438 40.375 -2.109375 C 41.019531 -1.316406 42.46875 -0.921875 44.71875 -0.921875 L 45.09375 -0.921875 L 45.09375 0 L 31.546875 0 L 31.546875 -33.84375 C 31.546875 -38.53125 31.039062 -42 30.03125 -44.25 C 29.03125 -46.507812 27.28125 -47.640625 24.78125 -47.640625 C 22.28125 -47.640625 20.207031 -46.34375 18.5625 -43.75 C 16.914062 -41.164062 16.09375 -36.976562 16.09375 -31.1875 L 16.09375 -7.40625 C 16.09375 -4.601562 16.425781 -2.820312 17.09375 -2.0625 C 17.769531 -1.300781 19.265625 -0.921875 21.578125 -0.921875 L 22.046875 -0.921875 L 22.046875 0 Z M 1.921875 0 "/></g></g><g style="fill:#ffffff;fill-opacity:1;"><g transform="translate(822.74344, 200.917525)"><path style="stroke:none" d="M 21.125 0.921875 C 15.695312 0.921875 11.457031 -1.148438 8.40625 -5.296875 C 5.363281 -9.441406 3.84375 -15.847656 3.84375 -24.515625 C 3.84375 -41.398438 9.664062 -49.84375 21.3125 -49.84375 C 26.914062 -49.84375 31.179688 -47.738281 34.109375 -43.53125 C 37.035156 -39.320312 38.5 -32.984375 38.5 -24.515625 C 38.5 -15.796875 37.035156 -9.375 34.109375 -5.25 C 31.179688 -1.132812 26.851562 0.921875 21.125 0.921875 Z M 21.21875 0 C 24.695312 0 27.117188 -1.859375 28.484375 -5.578125 C 29.859375 -9.296875 30.546875 -15.609375 30.546875 -24.515625 C 30.546875 -30.484375 30.253906 -35.265625 29.671875 -38.859375 C 29.097656 -42.460938 28.125 -45.039062 26.75 -46.59375 C 25.375 -48.144531 23.5 -48.921875 21.125 -48.921875 C 18.863281 -48.921875 17.046875 -48.144531 15.671875 -46.59375 C 14.304688 -45.039062 13.332031 -42.460938 12.75 -38.859375 C 12.175781 -35.265625 11.890625 -30.484375 11.890625 -24.515625 C 11.890625 -15.609375 12.617188 -9.296875 14.078125 -5.578125 C 15.546875 -1.859375 17.925781 0 21.21875 0 Z M 21.21875 0 "/></g></g><g style="fill:#ffffff;fill-opacity:1;"><g transform="translate(317.358772, 260.409484)"><path style="stroke:none" d="M 17.453125 -5.015625 L 7.171875 -5.015625 L 5.40625 0 L 1.203125 0 L 10 -24.59375 L 14.65625 -24.59375 L 23.453125 0 L 19.21875 0 Z M 16.328125 -8.296875 L 12.328125 -19.71875 L 8.296875 -8.296875 Z M 16.328125 -8.296875 "/></g></g><g style="fill:#ffffff;fill-opacity:1;"><g transform="translate(351.672731, 260.409484)"><path style="stroke:none" d="M 6.671875 -16.609375 C 7.359375 -17.503906 8.289062 -18.253906 9.46875 -18.859375 C 10.644531 -19.472656 11.972656 -19.78125 13.453125 -19.78125 C 15.148438 -19.78125 16.695312 -19.363281 18.09375 -18.53125 C 19.5 -17.695312 20.601562 -16.523438 21.40625 -15.015625 C 22.207031 -13.503906 22.609375 -11.773438 22.609375 -9.828125 C 22.609375 -7.867188 22.207031 -6.117188 21.40625 -4.578125 C 20.601562 -3.035156 19.5 -1.832031 18.09375 -0.96875 C 16.695312 -0.113281 15.148438 0.3125 13.453125 0.3125 C 11.972656 0.3125 10.65625 0.015625 9.5 -0.578125 C 8.34375 -1.179688 7.398438 -1.929688 6.671875 -2.828125 L 6.671875 9.25 L 2.65625 9.25 L 2.65625 -19.46875 L 6.671875 -19.46875 Z M 18.515625 -9.828125 C 18.515625 -11.160156 18.234375 -12.316406 17.671875 -13.296875 C 17.117188 -14.273438 16.390625 -15.015625 15.484375 -15.515625 C 14.578125 -16.023438 13.609375 -16.28125 12.578125 -16.28125 C 11.566406 -16.28125 10.609375 -16.019531 9.703125 -15.5 C 8.796875 -14.988281 8.0625 -14.238281 7.5 -13.25 C 6.945312 -12.257812 6.671875 -11.09375 6.671875 -9.75 C 6.671875 -8.40625 6.945312 -7.234375 7.5 -6.234375 C 8.0625 -5.234375 8.796875 -4.472656 9.703125 -3.953125 C 10.609375 -3.429688 11.566406 -3.171875 12.578125 -3.171875 C 13.609375 -3.171875 14.578125 -3.4375 15.484375 -3.96875 C 16.390625 -4.5 17.117188 -5.269531 17.671875 -6.28125 C 18.234375 -7.300781 18.515625 -8.484375 18.515625 -9.828125 Z M 18.515625 -9.828125 "/></g></g><g style="fill:#ffffff;fill-opacity:1;"><g transform="translate(385.315327, 260.409484)"><path style="stroke:none" d="M 1.3125 -9.828125 C 1.3125 -11.773438 1.71875 -13.503906 2.53125 -15.015625 C 3.34375 -16.523438 4.445312 -17.695312 5.84375 -18.53125 C 7.25 -19.363281 8.800781 -19.78125 10.5 -19.78125 C 12.019531 -19.78125 13.351562 -19.476562 14.5 -18.875 C 15.644531 -18.28125 16.554688 -17.535156 17.234375 -16.640625 L 17.234375 -19.46875 L 21.296875 -19.46875 L 21.296875 0 L 17.234375 0 L 17.234375 -2.890625 C 16.554688 -1.972656 15.628906 -1.207031 14.453125 -0.59375 C 13.273438 0.0078125 11.929688 0.3125 10.421875 0.3125 C 8.742188 0.3125 7.210938 -0.113281 5.828125 -0.96875 C 4.441406 -1.832031 3.34375 -3.035156 2.53125 -4.578125 C 1.71875 -6.117188 1.3125 -7.867188 1.3125 -9.828125 Z M 17.234375 -9.75 C 17.234375 -11.09375 16.957031 -12.257812 16.40625 -13.25 C 15.851562 -14.238281 15.128906 -14.988281 14.234375 -15.5 C 13.335938 -16.019531 12.375 -16.28125 11.34375 -16.28125 C 10.300781 -16.28125 9.332031 -16.023438 8.4375 -15.515625 C 7.539062 -15.015625 6.816406 -14.273438 6.265625 -13.296875 C 5.710938 -12.316406 5.4375 -11.160156 5.4375 -9.828125 C 5.4375 -8.484375 5.710938 -7.300781 6.265625 -6.28125 C 6.816406 -5.269531 7.546875 -4.5 8.453125 -3.96875 C 9.367188 -3.4375 10.332031 -3.171875 11.34375 -3.171875 C 12.375 -3.171875 13.335938 -3.429688 14.234375 -3.953125 C 15.128906 -4.472656 15.851562 -5.234375 16.40625 -6.234375 C 16.957031 -7.234375 17.234375 -8.40625 17.234375 -9.75 Z M 17.234375 -9.75 "/></g></g><g style="fill:#ffffff;fill-opacity:1;"><g transform="translate(418.957924, 260.409484)"><path style="stroke:none" d="M 6.671875 -16.640625 C 7.265625 -17.628906 8.050781 -18.398438 9.03125 -18.953125 C 10.007812 -19.503906 11.164062 -19.78125 12.5 -19.78125 L 12.5 -15.609375 L 11.484375 -15.609375 C 9.898438 -15.609375 8.703125 -15.207031 7.890625 -14.40625 C 7.078125 -13.613281 6.671875 -12.226562 6.671875 -10.25 L 6.671875 0 L 2.65625 0 L 2.65625 -19.46875 L 6.671875 -19.46875 Z M 6.671875 -16.640625 "/></g></g><g style="fill:#ffffff;fill-opacity:1;"><g transform="translate(442.212048, 260.409484)"><path style="stroke:none" d="M 1.3125 -9.828125 C 1.3125 -11.773438 1.71875 -13.503906 2.53125 -15.015625 C 3.34375 -16.523438 4.445312 -17.695312 5.84375 -18.53125 C 7.25 -19.363281 8.800781 -19.78125 10.5 -19.78125 C 12.019531 -19.78125 13.351562 -19.476562 14.5 -18.875 C 15.644531 -18.28125 16.554688 -17.535156 17.234375 -16.640625 L 17.234375 -19.46875 L 21.296875 -19.46875 L 21.296875 0 L 17.234375 0 L 17.234375 -2.890625 C 16.554688 -1.972656 15.628906 -1.207031 14.453125 -0.59375 C 13.273438 0.0078125 11.929688 0.3125 10.421875 0.3125 C 8.742188 0.3125 7.210938 -0.113281 5.828125 -0.96875 C 4.441406 -1.832031 3.34375 -3.035156 2.53125 -4.578125 C 1.71875 -6.117188 1.3125 -7.867188 1.3125 -9.828125 Z M 17.234375 -9.75 C 17.234375 -11.09375 16.957031 -12.257812 16.40625 -13.25 C 15.851562 -14.238281 15.128906 -14.988281 14.234375 -15.5 C 13.335938 -16.019531 12.375 -16.28125 11.34375 -16.28125 C 10.300781 -16.28125 9.332031 -16.023438 8.4375 -15.515625 C 7.539062 -15.015625 6.816406 -14.273438 6.265625 -13.296875 C 5.710938 -12.316406 5.4375 -11.160156 5.4375 -9.828125 C 5.4375 -8.484375 5.710938 -7.300781 6.265625 -6.28125 C 6.816406 -5.269531 7.546875 -4.5 8.453125 -3.96875 C 9.367188 -3.4375 10.332031 -3.171875 11.34375 -3.171875 C 12.375 -3.171875 13.335938 -3.429688 14.234375 -3.953125 C 15.128906 -4.472656 15.851562 -5.234375 16.40625 -6.234375 C 16.957031 -7.234375 17.234375 -8.40625 17.234375 -9.75 Z M 17.234375 -9.75 "/></g></g><g style="fill:#ffffff;fill-opacity:1;"><g transform="translate(475.854645, 260.409484)"><path style="stroke:none" d="M 7.34375 -16.1875 L 7.34375 -5.40625 C 7.34375 -4.675781 7.515625 -4.148438 7.859375 -3.828125 C 8.203125 -3.515625 8.785156 -3.359375 9.609375 -3.359375 L 12.078125 -3.359375 L 12.078125 0 L 8.90625 0 C 7.09375 0 5.703125 -0.421875 4.734375 -1.265625 C 3.765625 -2.117188 3.28125 -3.5 3.28125 -5.40625 L 3.28125 -16.1875 L 0.984375 -16.1875 L 0.984375 -19.46875 L 3.28125 -19.46875 L 3.28125 -24.3125 L 7.34375 -24.3125 L 7.34375 -19.46875 L 12.078125 -19.46875 L 12.078125 -16.1875 Z M 7.34375 -16.1875 "/></g></g><g style="fill:#ffffff;fill-opacity:1;"><g transform="translate(498.684756, 260.409484)"><path style="stroke:none" d="M 11.09375 0.3125 C 9.257812 0.3125 7.597656 -0.101562 6.109375 -0.9375 C 4.628906 -1.769531 3.460938 -2.945312 2.609375 -4.46875 C 1.765625 -5.988281 1.34375 -7.75 1.34375 -9.75 C 1.34375 -11.726562 1.773438 -13.484375 2.640625 -15.015625 C 3.515625 -16.546875 4.707031 -17.722656 6.21875 -18.546875 C 7.726562 -19.367188 9.410156 -19.78125 11.265625 -19.78125 C 13.128906 -19.78125 14.8125 -19.367188 16.3125 -18.546875 C 17.820312 -17.722656 19.015625 -16.546875 19.890625 -15.015625 C 20.765625 -13.484375 21.203125 -11.726562 21.203125 -9.75 C 21.203125 -7.769531 20.753906 -6.015625 19.859375 -4.484375 C 18.960938 -2.953125 17.742188 -1.769531 16.203125 -0.9375 C 14.660156 -0.101562 12.957031 0.3125 11.09375 0.3125 Z M 11.09375 -3.171875 C 12.125 -3.171875 13.09375 -3.414062 14 -3.90625 C 14.914062 -4.40625 15.65625 -5.148438 16.21875 -6.140625 C 16.78125 -7.128906 17.0625 -8.332031 17.0625 -9.75 C 17.0625 -11.164062 16.789062 -12.359375 16.25 -13.328125 C 15.707031 -14.304688 14.988281 -15.039062 14.09375 -15.53125 C 13.195312 -16.03125 12.234375 -16.28125 11.203125 -16.28125 C 10.160156 -16.28125 9.195312 -16.03125 8.3125 -15.53125 C 7.4375 -15.039062 6.738281 -14.304688 6.21875 -13.328125 C 5.695312 -12.359375 5.4375 -11.164062 5.4375 -9.75 C 5.4375 -7.65625 5.972656 -6.035156 7.046875 -4.890625 C 8.117188 -3.742188 9.46875 -3.171875 11.09375 -3.171875 Z M 11.09375 -3.171875 "/></g></g><g style="fill:#ffffff;fill-opacity:1;"><g transform="translate(530.913941, 260.409484)"><path style="stroke:none" d=""/></g></g><g style="fill:#ffffff;fill-opacity:1;"><g transform="translate(549.786529, 260.409484)"><path style="stroke:none" d="M 10.671875 -24.546875 C 13.285156 -24.546875 15.570312 -24.046875 17.53125 -23.046875 C 19.5 -22.046875 21.019531 -20.609375 22.09375 -18.734375 C 23.164062 -16.867188 23.703125 -14.6875 23.703125 -12.1875 C 23.703125 -9.6875 23.164062 -7.519531 22.09375 -5.6875 C 21.019531 -3.851562 19.5 -2.445312 17.53125 -1.46875 C 15.570312 -0.488281 13.285156 0 10.671875 0 L 2.65625 0 L 2.65625 -24.546875 Z M 10.671875 -3.28125 C 13.546875 -3.28125 15.75 -4.054688 17.28125 -5.609375 C 18.8125 -7.171875 19.578125 -9.363281 19.578125 -12.1875 C 19.578125 -15.039062 18.8125 -17.265625 17.28125 -18.859375 C 15.75 -20.460938 13.546875 -21.265625 10.671875 -21.265625 L 6.671875 -21.265625 L 6.671875 -3.28125 Z M 10.671875 -3.28125 "/></g></g><g style="fill:#ffffff;fill-opacity:1;"><g transform="translate(584.5245, 260.409484)"><path style="stroke:none" d="M 4.703125 -22.046875 C 3.972656 -22.046875 3.359375 -22.289062 2.859375 -22.78125 C 2.367188 -23.28125 2.125 -23.894531 2.125 -24.625 C 2.125 -25.351562 2.367188 -25.960938 2.859375 -26.453125 C 3.359375 -26.953125 3.972656 -27.203125 4.703125 -27.203125 C 5.410156 -27.203125 6.007812 -26.953125 6.5 -26.453125 C 7 -25.960938 7.25 -25.351562 7.25 -24.625 C 7.25 -23.894531 7 -23.28125 6.5 -22.78125 C 6.007812 -22.289062 5.410156 -22.046875 4.703125 -22.046875 Z M 6.671875 -19.46875 L 6.671875 0 L 2.65625 0 L 2.65625 -19.46875 Z M 6.671875 -19.46875 "/></g></g><g style="fill:#ffffff;fill-opacity:1;"><g transform="translate(603.538426, 260.409484)"><path style="stroke:none" d="M 10.5 -19.78125 C 12 -19.78125 13.332031 -19.476562 14.5 -18.875 C 15.664062 -18.28125 16.578125 -17.535156 17.234375 -16.640625 L 17.234375 -19.46875 L 21.296875 -19.46875 L 21.296875 0.3125 C 21.296875 2.101562 20.921875 3.695312 20.171875 5.09375 C 19.421875 6.5 18.332031 7.601562 16.90625 8.40625 C 15.476562 9.207031 13.773438 9.609375 11.796875 9.609375 C 9.160156 9.609375 6.96875 8.988281 5.21875 7.75 C 3.476562 6.519531 2.492188 4.84375 2.265625 2.71875 L 6.25 2.71875 C 6.5625 3.726562 7.21875 4.546875 8.21875 5.171875 C 9.21875 5.796875 10.410156 6.109375 11.796875 6.109375 C 13.421875 6.109375 14.734375 5.613281 15.734375 4.625 C 16.734375 3.632812 17.234375 2.195312 17.234375 0.3125 L 17.234375 -2.9375 C 16.554688 -2.007812 15.632812 -1.234375 14.46875 -0.609375 C 13.300781 0.00390625 11.976562 0.3125 10.5 0.3125 C 8.800781 0.3125 7.25 -0.113281 5.84375 -0.96875 C 4.445312 -1.832031 3.34375 -3.035156 2.53125 -4.578125 C 1.71875 -6.117188 1.3125 -7.867188 1.3125 -9.828125 C 1.3125 -11.773438 1.71875 -13.503906 2.53125 -15.015625 C 3.34375 -16.523438 4.445312 -17.695312 5.84375 -18.53125 C 7.25 -19.363281 8.800781 -19.78125 10.5 -19.78125 Z M 17.234375 -9.75 C 17.234375 -11.09375 16.957031 -12.257812 16.40625 -13.25 C 15.851562 -14.238281 15.128906 -14.988281 14.234375 -15.5 C 13.335938 -16.019531 12.375 -16.28125 11.34375 -16.28125 C 10.300781 -16.28125 9.332031 -16.023438 8.4375 -15.515625 C 7.539062 -15.015625 6.816406 -14.273438 6.265625 -13.296875 C 5.710938 -12.316406 5.4375 -11.160156 5.4375 -9.828125 C 5.4375 -8.484375 5.710938 -7.300781 6.265625 -6.28125 C 6.816406 -5.269531 7.546875 -4.5 8.453125 -3.96875 C 9.367188 -3.4375 10.332031 -3.171875 11.34375 -3.171875 C 12.375 -3.171875 13.335938 -3.429688 14.234375 -3.953125 C 15.128906 -4.472656 15.851562 -5.234375 16.40625 -6.234375 C 16.957031 -7.234375 17.234375 -8.40625 17.234375 -9.75 Z M 17.234375 -9.75 "/></g></g><g style="fill:#ffffff;fill-opacity:1;"><g transform="translate(637.181022, 260.409484)"><path style="stroke:none" d="M 20.484375 -10.203125 C 20.484375 -9.472656 20.4375 -8.816406 20.34375 -8.234375 L 5.46875 -8.234375 C 5.59375 -6.679688 6.171875 -5.429688 7.203125 -4.484375 C 8.242188 -3.546875 9.515625 -3.078125 11.015625 -3.078125 C 13.179688 -3.078125 14.710938 -3.984375 15.609375 -5.796875 L 19.953125 -5.796875 C 19.367188 -4.003906 18.304688 -2.535156 16.765625 -1.390625 C 15.222656 -0.253906 13.304688 0.3125 11.015625 0.3125 C 9.160156 0.3125 7.492188 -0.101562 6.015625 -0.9375 C 4.546875 -1.769531 3.394531 -2.945312 2.5625 -4.46875 C 1.726562 -5.988281 1.3125 -7.75 1.3125 -9.75 C 1.3125 -11.75 1.71875 -13.507812 2.53125 -15.03125 C 3.34375 -16.550781 4.484375 -17.722656 5.953125 -18.546875 C 7.421875 -19.367188 9.109375 -19.78125 11.015625 -19.78125 C 12.859375 -19.78125 14.5 -19.378906 15.9375 -18.578125 C 17.375 -17.773438 18.488281 -16.648438 19.28125 -15.203125 C 20.082031 -13.753906 20.484375 -12.085938 20.484375 -10.203125 Z M 16.28125 -11.484375 C 16.257812 -12.960938 15.726562 -14.148438 14.6875 -15.046875 C 13.65625 -15.941406 12.375 -16.390625 10.84375 -16.390625 C 9.457031 -16.390625 8.269531 -15.945312 7.28125 -15.0625 C 6.289062 -14.1875 5.703125 -12.992188 5.515625 -11.484375 Z M 16.28125 -11.484375 "/></g></g><g style="fill:#ffffff;fill-opacity:1;"><g transform="translate(668.668194, 260.409484)"><path style="stroke:none" d="M 9.71875 0.3125 C 8.1875 0.3125 6.8125 0.0351562 5.59375 -0.515625 C 4.382812 -1.066406 3.425781 -1.816406 2.71875 -2.765625 C 2.007812 -3.722656 1.632812 -4.789062 1.59375 -5.96875 L 5.765625 -5.96875 C 5.828125 -5.144531 6.21875 -4.457031 6.9375 -3.90625 C 7.65625 -3.351562 8.554688 -3.078125 9.640625 -3.078125 C 10.773438 -3.078125 11.65625 -3.289062 12.28125 -3.71875 C 12.90625 -4.15625 13.21875 -4.71875 13.21875 -5.40625 C 13.21875 -6.132812 12.867188 -6.675781 12.171875 -7.03125 C 11.472656 -7.382812 10.375 -7.773438 8.875 -8.203125 C 7.40625 -8.597656 6.210938 -8.984375 5.296875 -9.359375 C 4.378906 -9.734375 3.582031 -10.3125 2.90625 -11.09375 C 2.238281 -11.875 1.90625 -12.898438 1.90625 -14.171875 C 1.90625 -15.203125 2.210938 -16.144531 2.828125 -17 C 3.441406 -17.863281 4.316406 -18.539062 5.453125 -19.03125 C 6.597656 -19.53125 7.910156 -19.78125 9.390625 -19.78125 C 11.609375 -19.78125 13.394531 -19.21875 14.75 -18.09375 C 16.101562 -16.976562 16.828125 -15.457031 16.921875 -13.53125 L 12.890625 -13.53125 C 12.816406 -14.40625 12.460938 -15.097656 11.828125 -15.609375 C 11.191406 -16.128906 10.332031 -16.390625 9.25 -16.390625 C 8.195312 -16.390625 7.382812 -16.1875 6.8125 -15.78125 C 6.25 -15.382812 5.96875 -14.859375 5.96875 -14.203125 C 5.96875 -13.679688 6.15625 -13.242188 6.53125 -12.890625 C 6.90625 -12.535156 7.363281 -12.257812 7.90625 -12.0625 C 8.445312 -11.863281 9.25 -11.613281 10.3125 -11.3125 C 11.726562 -10.925781 12.890625 -10.539062 13.796875 -10.15625 C 14.703125 -9.769531 15.484375 -9.195312 16.140625 -8.4375 C 16.804688 -7.6875 17.148438 -6.6875 17.171875 -5.4375 C 17.171875 -4.332031 16.863281 -3.34375 16.25 -2.46875 C 15.632812 -1.601562 14.765625 -0.921875 13.640625 -0.421875 C 12.523438 0.0664062 11.21875 0.3125 9.71875 0.3125 Z M 9.71875 0.3125 "/></g></g><g style="fill:#ffffff;fill-opacity:1;"><g transform="translate(697.222567, 260.409484)"><path style="stroke:none" d="M 7.34375 -16.1875 L 7.34375 -5.40625 C 7.34375 -4.675781 7.515625 -4.148438 7.859375 -3.828125 C 8.203125 -3.515625 8.785156 -3.359375 9.609375 -3.359375 L 12.078125 -3.359375 L 12.078125 0 L 8.90625 0 C 7.09375 0 5.703125 -0.421875 4.734375 -1.265625 C 3.765625 -2.117188 3.28125 -3.5 3.28125 -5.40625 L 3.28125 -16.1875 L 0.984375 -16.1875 L 0.984375 -19.46875 L 3.28125 -19.46875 L 3.28125 -24.3125 L 7.34375 -24.3125 L 7.34375 -19.46875 L 12.078125 -19.46875 L 12.078125 -16.1875 Z M 7.34375 -16.1875 "/></g></g><g style="fill:#ffffff;fill-opacity:1;"><g transform="translate(720.052679, 260.409484)"><path style="stroke:none" d="M 4.703125 -22.046875 C 3.972656 -22.046875 3.359375 -22.289062 2.859375 -22.78125 C 2.367188 -23.28125 2.125 -23.894531 2.125 -24.625 C 2.125 -25.351562 2.367188 -25.960938 2.859375 -26.453125 C 3.359375 -26.953125 3.972656 -27.203125 4.703125 -27.203125 C 5.410156 -27.203125 6.007812 -26.953125 6.5 -26.453125 C 7 -25.960938 7.25 -25.351562 7.25 -24.625 C 7.25 -23.894531 7 -23.28125 6.5 -22.78125 C 6.007812 -22.289062 5.410156 -22.046875 4.703125 -22.046875 Z M 6.671875 -19.46875 L 6.671875 0 L 2.65625 0 L 2.65625 -19.46875 Z M 6.671875 -19.46875 "/></g></g><g style="fill:#ffffff;fill-opacity:1;"><g transform="translate(739.066604, 260.409484)"><path style="stroke:none" d="M 10.171875 -3.609375 L 15.6875 -19.46875 L 19.953125 -19.46875 L 12.546875 0 L 7.734375 0 L 0.359375 -19.46875 L 4.65625 -19.46875 Z M 10.171875 -3.609375 "/></g></g><g style="fill:#ffffff;fill-opacity:1;"><g transform="translate(769.105039, 260.409484)"><path style="stroke:none" d="M 11.09375 0.3125 C 9.257812 0.3125 7.597656 -0.101562 6.109375 -0.9375 C 4.628906 -1.769531 3.460938 -2.945312 2.609375 -4.46875 C 1.765625 -5.988281 1.34375 -7.75 1.34375 -9.75 C 1.34375 -11.726562 1.773438 -13.484375 2.640625 -15.015625 C 3.515625 -16.546875 4.707031 -17.722656 6.21875 -18.546875 C 7.726562 -19.367188 9.410156 -19.78125 11.265625 -19.78125 C 13.128906 -19.78125 14.8125 -19.367188 16.3125 -18.546875 C 17.820312 -17.722656 19.015625 -16.546875 19.890625 -15.015625 C 20.765625 -13.484375 21.203125 -11.726562 21.203125 -9.75 C 21.203125 -7.769531 20.753906 -6.015625 19.859375 -4.484375 C 18.960938 -2.953125 17.742188 -1.769531 16.203125 -0.9375 C 14.660156 -0.101562 12.957031 0.3125 11.09375 0.3125 Z M 11.09375 -3.171875 C 12.125 -3.171875 13.09375 -3.414062 14 -3.90625 C 14.914062 -4.40625 15.65625 -5.148438 16.21875 -6.140625 C 16.78125 -7.128906 17.0625 -8.332031 17.0625 -9.75 C 17.0625 -11.164062 16.789062 -12.359375 16.25 -13.328125 C 15.707031 -14.304688 14.988281 -15.039062 14.09375 -15.53125 C 13.195312 -16.03125 12.234375 -16.28125 11.203125 -16.28125 C 10.160156 -16.28125 9.195312 -16.03125 8.3125 -15.53125 C 7.4375 -15.039062 6.738281 -14.304688 6.21875 -13.328125 C 5.695312 -12.359375 5.4375 -11.164062 5.4375 -9.75 C 5.4375 -7.65625 5.972656 -6.035156 7.046875 -4.890625 C 8.117188 -3.742188 9.46875 -3.171875 11.09375 -3.171875 Z M 11.09375 -3.171875 "/></g></g><g clip-rule="nonzero" clip-path="url(#bec9dfd770)"><g clip-rule="nonzero" clip-path="url(#5ec37a96c1)"><path style=" stroke:none;fill-rule:nonzero;fill:#ffffff;fill-opacity:1;" d="M 29.585938 19.664062 L 290.257812 19.664062 L 290.257812 280.335938 L 29.585938 280.335938 Z M 29.585938 19.664062 "/></g></g><g style="fill:#ffffff;fill-opacity:1;"><g transform="translate(64.127063, 210.883325)"><path style="stroke:none" d="M 226.1875 33.3125 C 227.007812 33.3125 227.832031 33.3125 228.65625 33.3125 L 228.65625 35.375 C 224.8125 35.914062 220.523438 36.1875 215.796875 36.1875 C 211.066406 36.1875 205.238281 35.15625 198.3125 33.09375 C 191.394531 31.039062 185.128906 27.207031 179.515625 21.59375 C 167.992188 10.070312 161 -4.867188 158.53125 -23.234375 L 146 -114.734375 L 103.21875 -18.09375 C 99.382812 -9.726562 97.054688 -2.738281 96.234375 2.875 L 94.171875 2.875 L 40.921875 -112.890625 L 31.875 -10.6875 C 31.59375 -8.363281 32.304688 -6.304688 34.015625 -4.515625 C 35.734375 -2.734375 37.625 -1.84375 39.6875 -1.84375 L 42.96875 -1.84375 L 42.96875 0 L 3.078125 0 L 3.078125 -2.0625 L 6.375 -2.0625 C 10.070312 -2.0625 13.328125 -3.191406 16.140625 -5.453125 C 18.953125 -7.710938 20.703125 -10.691406 21.390625 -14.390625 L 34.34375 -126.671875 C 22.28125 -150.378906 7.816406 -162.234375 -9.046875 -162.234375 C -10.554688 -162.234375 -12.132812 -162.164062 -13.78125 -162.03125 L -13.78125 -164.09375 C -10.070312 -165.050781 -7.050781 -165.53125 -4.71875 -165.53125 C -2.394531 -165.53125 0.132812 -165.425781 2.875 -165.21875 C 5.613281 -165.007812 8.832031 -164.359375 12.53125 -163.265625 C 16.238281 -162.171875 19.738281 -160.5625 23.03125 -158.4375 C 26.320312 -156.3125 29.203125 -154.117188 31.671875 -151.859375 C 34.140625 -149.597656 36.46875 -147.09375 38.65625 -144.34375 C 42.351562 -139.414062 45.300781 -134.6875 47.5 -130.15625 L 97.0625 -22.828125 L 152.375 -146.8125 L 154.21875 -146.8125 L 173.34375 -25.09375 C 176.21875 -5.894531 182.414062 8.632812 191.9375 18.5 C 201.46875 28.375 212.882812 33.3125 226.1875 33.3125 Z M 226.1875 33.3125 "/></g></g></g></svg>